<mxfile host="app.diagrams.net" modified="2023-11-24T23:53:56.600Z" agent="Mozilla/5.0 (Macintosh; Intel Mac OS X 10_15_7) AppleWebKit/537.36 (KHTML, like Gecko) Chrome/117.0.0.0 Safari/537.36" etag="xuXCSxq8G99-dJfpcM_H" version="22.1.4" type="device">
  <diagram id="R2lEEEUBdFMjLlhIrx00" name="Page-1">
    <mxGraphModel dx="3576" dy="2631" grid="1" gridSize="10" guides="1" tooltips="1" connect="1" arrows="1" fold="1" page="1" pageScale="1" pageWidth="850" pageHeight="1100" math="0" shadow="0" extFonts="Permanent Marker^https://fonts.googleapis.com/css?family=Permanent+Marker">
      <root>
        <mxCell id="0" />
        <mxCell id="1" parent="0" />
        <mxCell id="mhtMq_iuCtjjIO76mxL3-112" style="edgeStyle=orthogonalEdgeStyle;rounded=0;orthogonalLoop=1;jettySize=auto;html=1;entryX=0.5;entryY=0;entryDx=0;entryDy=0;endArrow=none;endFill=0;" edge="1" parent="1" source="mhtMq_iuCtjjIO76mxL3-8" target="wSlA6vIZNR8ij178aPXZ-131">
          <mxGeometry relative="1" as="geometry" />
        </mxCell>
        <mxCell id="mhtMq_iuCtjjIO76mxL3-8" value="" style="rhombus;whiteSpace=wrap;html=1;" vertex="1" parent="1">
          <mxGeometry x="483.76" y="405.22000000000014" width="90" height="67.5" as="geometry" />
        </mxCell>
        <mxCell id="mhtMq_iuCtjjIO76mxL3-5" value="" style="rhombus;whiteSpace=wrap;html=1;" vertex="1" parent="1">
          <mxGeometry x="50" y="618.36" width="75" height="55" as="geometry" />
        </mxCell>
        <mxCell id="mhtMq_iuCtjjIO76mxL3-2" value="" style="rhombus;whiteSpace=wrap;html=1;" vertex="1" parent="1">
          <mxGeometry x="-225.62" y="922.7299999999998" width="85" height="66.25" as="geometry" />
        </mxCell>
        <mxCell id="wSlA6vIZNR8ij178aPXZ-135" value="" style="ellipse;whiteSpace=wrap;html=1;" parent="1" vertex="1">
          <mxGeometry x="-626.25" y="257.19999999999993" width="72.5" height="53.91" as="geometry" />
        </mxCell>
        <mxCell id="wSlA6vIZNR8ij178aPXZ-133" value="" style="ellipse;whiteSpace=wrap;html=1;" parent="1" vertex="1">
          <mxGeometry x="693.11" y="237.21000000000004" width="93.76" height="50" as="geometry" />
        </mxCell>
        <mxCell id="wSlA6vIZNR8ij178aPXZ-163" style="rounded=0;orthogonalLoop=1;jettySize=auto;html=1;exitX=1;exitY=0.25;exitDx=0;exitDy=0;entryX=1;entryY=1;entryDx=0;entryDy=0;endArrow=none;endFill=0;" parent="1" source="wSlA6vIZNR8ij178aPXZ-132" target="wSlA6vIZNR8ij178aPXZ-114" edge="1">
          <mxGeometry relative="1" as="geometry" />
        </mxCell>
        <mxCell id="wSlA6vIZNR8ij178aPXZ-164" style="rounded=0;orthogonalLoop=1;jettySize=auto;html=1;entryX=1;entryY=0.5;entryDx=0;entryDy=0;endArrow=none;endFill=0;exitX=0.992;exitY=0.58;exitDx=0;exitDy=0;exitPerimeter=0;" parent="1" source="wSlA6vIZNR8ij178aPXZ-132" target="wSlA6vIZNR8ij178aPXZ-115" edge="1">
          <mxGeometry relative="1" as="geometry">
            <mxPoint x="576.24" y="210" as="sourcePoint" />
          </mxGeometry>
        </mxCell>
        <mxCell id="wSlA6vIZNR8ij178aPXZ-132" value="" style="rounded=0;whiteSpace=wrap;html=1;" parent="1" vertex="1">
          <mxGeometry x="430" y="188.51999999999998" width="140" height="60" as="geometry" />
        </mxCell>
        <mxCell id="wSlA6vIZNR8ij178aPXZ-131" value="" style="rounded=0;whiteSpace=wrap;html=1;" parent="1" vertex="1">
          <mxGeometry x="455" y="613.3600000000001" width="140" height="60" as="geometry" />
        </mxCell>
        <mxCell id="wSlA6vIZNR8ij178aPXZ-129" value="" style="rounded=0;whiteSpace=wrap;html=1;" parent="1" vertex="1">
          <mxGeometry x="415" y="-38" width="140" height="60" as="geometry" />
        </mxCell>
        <mxCell id="wSlA6vIZNR8ij178aPXZ-128" value="" style="rounded=0;whiteSpace=wrap;html=1;" parent="1" vertex="1">
          <mxGeometry x="-8.120000000000005" y="930.8599999999999" width="140" height="60" as="geometry" />
        </mxCell>
        <mxCell id="wSlA6vIZNR8ij178aPXZ-12" style="edgeStyle=orthogonalEdgeStyle;rounded=0;orthogonalLoop=1;jettySize=auto;html=1;endArrow=none;endFill=0;entryX=0;entryY=0.5;entryDx=0;entryDy=0;" parent="1" target="mhtMq_iuCtjjIO76mxL3-2" edge="1">
          <mxGeometry relative="1" as="geometry">
            <mxPoint x="-526.87" y="955.8549999999998" as="sourcePoint" />
            <mxPoint x="-228.12" y="955.8599999999999" as="targetPoint" />
          </mxGeometry>
        </mxCell>
        <mxCell id="wSlA6vIZNR8ij178aPXZ-13" style="edgeStyle=orthogonalEdgeStyle;rounded=0;orthogonalLoop=1;jettySize=auto;html=1;startArrow=none;startFill=0;endArrow=none;endFill=0;exitX=0.9;exitY=0.733;exitDx=0;exitDy=0;exitPerimeter=0;entryX=1;entryY=0.5;entryDx=0;entryDy=0;" parent="1" source="wSlA6vIZNR8ij178aPXZ-63" target="mhtMq_iuCtjjIO76mxL3-2" edge="1">
          <mxGeometry relative="1" as="geometry">
            <Array as="points">
              <mxPoint x="-8.120000000000005" y="955.8599999999999" />
            </Array>
            <mxPoint x="-138.12" y="955.8599999999999" as="targetPoint" />
          </mxGeometry>
        </mxCell>
        <mxCell id="wSlA6vIZNR8ij178aPXZ-2" value="Classroom" style="rounded=0;whiteSpace=wrap;html=1;perimeterSpacing=0;" parent="1" vertex="1">
          <mxGeometry x="1.8799999999999955" y="940.8599999999999" width="120" height="40" as="geometry" />
        </mxCell>
        <mxCell id="wSlA6vIZNR8ij178aPXZ-30" style="edgeStyle=orthogonalEdgeStyle;rounded=0;orthogonalLoop=1;jettySize=auto;html=1;entryX=0.5;entryY=1;entryDx=0;entryDy=0;endArrow=none;endFill=0;" parent="1" source="wSlA6vIZNR8ij178aPXZ-4" target="wSlA6vIZNR8ij178aPXZ-29" edge="1">
          <mxGeometry relative="1" as="geometry">
            <mxPoint x="134.37999999999977" y="410.22000000000025" as="targetPoint" />
          </mxGeometry>
        </mxCell>
        <mxCell id="wSlA6vIZNR8ij178aPXZ-4" value="Department" style="rounded=0;whiteSpace=wrap;html=1;" parent="1" vertex="1">
          <mxGeometry x="-161.25" y="628.36" width="120" height="40" as="geometry" />
        </mxCell>
        <mxCell id="wSlA6vIZNR8ij178aPXZ-5" value="Course" style="rounded=0;whiteSpace=wrap;html=1;" parent="1" vertex="1">
          <mxGeometry x="465" y="623.3600000000002" width="120" height="40" as="geometry" />
        </mxCell>
        <mxCell id="wSlA6vIZNR8ij178aPXZ-6" value="Section" style="rounded=0;whiteSpace=wrap;html=1;" parent="1" vertex="1">
          <mxGeometry x="439.99" y="198.51999999999998" width="120" height="40" as="geometry" />
        </mxCell>
        <mxCell id="wSlA6vIZNR8ij178aPXZ-7" value="Timeslot" style="rounded=0;whiteSpace=wrap;html=1;" parent="1" vertex="1">
          <mxGeometry x="425" y="-28" width="120" height="40" as="geometry" />
        </mxCell>
        <mxCell id="wSlA6vIZNR8ij178aPXZ-151" style="rounded=0;orthogonalLoop=1;jettySize=auto;html=1;exitX=0;exitY=0.5;exitDx=0;exitDy=0;entryX=1;entryY=0.5;entryDx=0;entryDy=0;endArrow=none;endFill=0;" parent="1" target="wSlA6vIZNR8ij178aPXZ-135" edge="1">
          <mxGeometry relative="1" as="geometry">
            <mxPoint x="-480" y="284.78" as="sourcePoint" />
          </mxGeometry>
        </mxCell>
        <mxCell id="wSlA6vIZNR8ij178aPXZ-8" value="Chair" style="rounded=0;whiteSpace=wrap;html=1;" parent="1" vertex="1">
          <mxGeometry x="-480" y="273.07000000000005" width="83.75" height="22.17" as="geometry" />
        </mxCell>
        <mxCell id="wSlA6vIZNR8ij178aPXZ-11" value="BC" style="rhombus;whiteSpace=wrap;html=1;" parent="1" vertex="1">
          <mxGeometry x="-218.12" y="928.3599999999999" width="70" height="55" as="geometry" />
        </mxCell>
        <mxCell id="mhtMq_iuCtjjIO76mxL3-123" style="edgeStyle=orthogonalEdgeStyle;rounded=0;orthogonalLoop=1;jettySize=auto;html=1;entryX=0;entryY=0;entryDx=0;entryDy=0;endArrow=none;endFill=0;" edge="1" parent="1" source="wSlA6vIZNR8ij178aPXZ-23" target="wSlA6vIZNR8ij178aPXZ-132">
          <mxGeometry relative="1" as="geometry">
            <Array as="points">
              <mxPoint x="88" y="85.86000000000001" />
              <mxPoint x="440" y="85.86000000000001" />
              <mxPoint x="440" y="188.86" />
            </Array>
          </mxGeometry>
        </mxCell>
        <mxCell id="wSlA6vIZNR8ij178aPXZ-23" value="LS" style="rhombus;whiteSpace=wrap;html=1;" parent="1" vertex="1">
          <mxGeometry x="62.5" y="237.21000000000004" width="50" height="50" as="geometry" />
        </mxCell>
        <mxCell id="wSlA6vIZNR8ij178aPXZ-31" style="edgeStyle=orthogonalEdgeStyle;rounded=0;orthogonalLoop=1;jettySize=auto;html=1;endArrow=none;endFill=0;" parent="1" source="wSlA6vIZNR8ij178aPXZ-29" edge="1">
          <mxGeometry relative="1" as="geometry">
            <mxPoint x="-450" y="295.86" as="targetPoint" />
            <Array as="points">
              <mxPoint x="-449" y="334.86" />
              <mxPoint x="-449" y="334.86" />
            </Array>
          </mxGeometry>
        </mxCell>
        <mxCell id="wSlA6vIZNR8ij178aPXZ-29" value="CD" style="rhombus;whiteSpace=wrap;html=1;" parent="1" vertex="1">
          <mxGeometry x="-473.75" y="355.22" width="50" height="50" as="geometry" />
        </mxCell>
        <mxCell id="wSlA6vIZNR8ij178aPXZ-35" value="DC" style="rhombus;whiteSpace=wrap;html=1;" parent="1" vertex="1">
          <mxGeometry x="57.5" y="625.86" width="60" height="40" as="geometry" />
        </mxCell>
        <mxCell id="wSlA6vIZNR8ij178aPXZ-38" value="CS" style="rhombus;whiteSpace=wrap;html=1;" parent="1" vertex="1">
          <mxGeometry x="493.76" y="413.97000000000014" width="70" height="50" as="geometry" />
        </mxCell>
        <mxCell id="wSlA6vIZNR8ij178aPXZ-50" style="rounded=0;orthogonalLoop=1;jettySize=auto;html=1;entryX=0.5;entryY=1;entryDx=0;entryDy=0;endArrow=none;endFill=0;exitX=0.5;exitY=0;exitDx=0;exitDy=0;" parent="1" source="wSlA6vIZNR8ij178aPXZ-48" target="wSlA6vIZNR8ij178aPXZ-129" edge="1">
          <mxGeometry relative="1" as="geometry">
            <mxPoint x="324.2213300872089" y="62.63239990722934" as="sourcePoint" />
          </mxGeometry>
        </mxCell>
        <mxCell id="wSlA6vIZNR8ij178aPXZ-55" style="rounded=0;orthogonalLoop=1;jettySize=auto;html=1;exitX=0.5;exitY=1;exitDx=0;exitDy=0;endArrow=none;endFill=0;entryX=0.666;entryY=-0.041;entryDx=0;entryDy=0;entryPerimeter=0;" parent="1" source="wSlA6vIZNR8ij178aPXZ-48" edge="1" target="wSlA6vIZNR8ij178aPXZ-132">
          <mxGeometry relative="1" as="geometry">
            <mxPoint x="776.24" y="-10" as="targetPoint" />
          </mxGeometry>
        </mxCell>
        <mxCell id="wSlA6vIZNR8ij178aPXZ-48" value="ST" style="rhombus;whiteSpace=wrap;html=1;rotation=0;" parent="1" vertex="1">
          <mxGeometry x="498.13" y="75.86000000000001" width="50" height="50" as="geometry" />
        </mxCell>
        <mxCell id="wSlA6vIZNR8ij178aPXZ-110" style="rounded=0;orthogonalLoop=1;jettySize=auto;html=1;entryX=1;entryY=0.5;entryDx=0;entryDy=0;endArrow=none;endFill=0;exitX=0.5;exitY=1;exitDx=0;exitDy=0;" parent="1" source="wSlA6vIZNR8ij178aPXZ-57" target="wSlA6vIZNR8ij178aPXZ-131" edge="1">
          <mxGeometry relative="1" as="geometry">
            <mxPoint x="810" y="655.86" as="sourcePoint" />
            <mxPoint x="766.87" y="695.8599999999997" as="targetPoint" />
          </mxGeometry>
        </mxCell>
        <mxCell id="wSlA6vIZNR8ij178aPXZ-57" value="prereqs" style="rhombus;whiteSpace=wrap;html=1;" parent="1" vertex="1">
          <mxGeometry x="732.51" y="618.36" width="70" height="50" as="geometry" />
        </mxCell>
        <mxCell id="wSlA6vIZNR8ij178aPXZ-63" value="{1, 1}" style="text;html=1;align=center;verticalAlign=middle;resizable=0;points=[];autosize=1;strokeColor=none;fillColor=none;" parent="1" vertex="1">
          <mxGeometry x="-53.120000000000005" y="928.8599999999999" width="50" height="30" as="geometry" />
        </mxCell>
        <mxCell id="wSlA6vIZNR8ij178aPXZ-141" style="rounded=0;orthogonalLoop=1;jettySize=auto;html=1;entryX=0.5;entryY=0;entryDx=0;entryDy=0;endArrow=none;endFill=0;" parent="1" source="wSlA6vIZNR8ij178aPXZ-64" target="wSlA6vIZNR8ij178aPXZ-128" edge="1">
          <mxGeometry relative="1" as="geometry" />
        </mxCell>
        <mxCell id="wSlA6vIZNR8ij178aPXZ-64" value="R#" style="ellipse;whiteSpace=wrap;html=1;" parent="1" vertex="1">
          <mxGeometry x="-18.120000000000005" y="840.8599999999999" width="50" height="30" as="geometry" />
        </mxCell>
        <mxCell id="wSlA6vIZNR8ij178aPXZ-142" style="rounded=0;orthogonalLoop=1;jettySize=auto;html=1;entryX=0.5;entryY=0;entryDx=0;entryDy=0;endArrow=none;endFill=0;" parent="1" source="wSlA6vIZNR8ij178aPXZ-65" target="wSlA6vIZNR8ij178aPXZ-128" edge="1">
          <mxGeometry relative="1" as="geometry" />
        </mxCell>
        <mxCell id="wSlA6vIZNR8ij178aPXZ-65" value="# of &lt;br&gt;sets" style="ellipse;whiteSpace=wrap;html=1;" parent="1" vertex="1">
          <mxGeometry x="71.88999999999999" y="840.8599999999999" width="49.99" height="30" as="geometry" />
        </mxCell>
        <mxCell id="wSlA6vIZNR8ij178aPXZ-71" value="{1, 1}" style="text;html=1;align=center;verticalAlign=middle;resizable=0;points=[];autosize=1;strokeColor=none;fillColor=none;" parent="1" vertex="1">
          <mxGeometry x="-478.75" y="248.68999999999994" width="50" height="30" as="geometry" />
        </mxCell>
        <mxCell id="wSlA6vIZNR8ij178aPXZ-149" style="rounded=0;orthogonalLoop=1;jettySize=auto;html=1;endArrow=none;endFill=0;entryX=0;entryY=0.5;entryDx=0;entryDy=0;" parent="1" source="wSlA6vIZNR8ij178aPXZ-72" target="mhtMq_iuCtjjIO76mxL3-20" edge="1">
          <mxGeometry relative="1" as="geometry">
            <mxPoint x="-50" y="155.86" as="targetPoint" />
          </mxGeometry>
        </mxCell>
        <mxCell id="wSlA6vIZNR8ij178aPXZ-72" value="&lt;u&gt;E#&lt;/u&gt;" style="ellipse;whiteSpace=wrap;html=1;" parent="1" vertex="1">
          <mxGeometry x="-410" y="145.8599999999999" width="40" height="24.37" as="geometry" />
        </mxCell>
        <mxCell id="wSlA6vIZNR8ij178aPXZ-74" value="phone #" style="ellipse;whiteSpace=wrap;html=1;" parent="1" vertex="1">
          <mxGeometry x="-620" y="264.15999999999997" width="60" height="40" as="geometry" />
        </mxCell>
        <mxCell id="wSlA6vIZNR8ij178aPXZ-152" style="rounded=0;orthogonalLoop=1;jettySize=auto;html=1;entryX=0.5;entryY=1;entryDx=0;entryDy=0;endArrow=none;endFill=0;" parent="1" source="wSlA6vIZNR8ij178aPXZ-75" target="wSlA6vIZNR8ij178aPXZ-4" edge="1">
          <mxGeometry relative="1" as="geometry" />
        </mxCell>
        <mxCell id="wSlA6vIZNR8ij178aPXZ-75" value="&lt;u&gt;dept #&lt;/u&gt;" style="ellipse;whiteSpace=wrap;html=1;" parent="1" vertex="1">
          <mxGeometry x="-170" y="778.3599999999999" width="52.5" height="30" as="geometry" />
        </mxCell>
        <mxCell id="wSlA6vIZNR8ij178aPXZ-153" style="rounded=0;orthogonalLoop=1;jettySize=auto;html=1;entryX=0.5;entryY=1;entryDx=0;entryDy=0;endArrow=none;endFill=0;" parent="1" source="wSlA6vIZNR8ij178aPXZ-76" target="wSlA6vIZNR8ij178aPXZ-4" edge="1">
          <mxGeometry relative="1" as="geometry" />
        </mxCell>
        <mxCell id="wSlA6vIZNR8ij178aPXZ-76" value="&lt;u&gt;Name&lt;/u&gt;" style="ellipse;whiteSpace=wrap;html=1;" parent="1" vertex="1">
          <mxGeometry x="-70" y="778.3599999999999" width="57.5" height="30" as="geometry" />
        </mxCell>
        <mxCell id="wSlA6vIZNR8ij178aPXZ-157" style="rounded=0;orthogonalLoop=1;jettySize=auto;html=1;entryX=0;entryY=1;entryDx=0;entryDy=0;endArrow=none;endFill=0;" parent="1" source="wSlA6vIZNR8ij178aPXZ-87" target="wSlA6vIZNR8ij178aPXZ-131" edge="1">
          <mxGeometry relative="1" as="geometry" />
        </mxCell>
        <mxCell id="wSlA6vIZNR8ij178aPXZ-87" value="C#" style="ellipse;whiteSpace=wrap;html=1;" parent="1" vertex="1">
          <mxGeometry x="175.01" y="739" width="60" height="30" as="geometry" />
        </mxCell>
        <mxCell id="wSlA6vIZNR8ij178aPXZ-158" style="rounded=0;orthogonalLoop=1;jettySize=auto;html=1;endArrow=none;endFill=0;entryX=0;entryY=1;entryDx=0;entryDy=0;" parent="1" source="wSlA6vIZNR8ij178aPXZ-88" edge="1" target="wSlA6vIZNR8ij178aPXZ-131">
          <mxGeometry relative="1" as="geometry">
            <mxPoint x="524.3899999999999" y="673.36" as="targetPoint" />
          </mxGeometry>
        </mxCell>
        <mxCell id="wSlA6vIZNR8ij178aPXZ-88" value="Name" style="ellipse;whiteSpace=wrap;html=1;" parent="1" vertex="1">
          <mxGeometry x="264.39" y="739" width="50" height="30" as="geometry" />
        </mxCell>
        <mxCell id="wSlA6vIZNR8ij178aPXZ-159" style="rounded=0;orthogonalLoop=1;jettySize=auto;html=1;entryX=0;entryY=1;entryDx=0;entryDy=0;endArrow=none;endFill=0;" parent="1" source="wSlA6vIZNR8ij178aPXZ-89" target="wSlA6vIZNR8ij178aPXZ-131" edge="1">
          <mxGeometry relative="1" as="geometry" />
        </mxCell>
        <mxCell id="wSlA6vIZNR8ij178aPXZ-89" value="Credit&lt;br&gt;Hours" style="ellipse;whiteSpace=wrap;html=1;" parent="1" vertex="1">
          <mxGeometry x="350" y="734" width="60" height="40" as="geometry" />
        </mxCell>
        <mxCell id="wSlA6vIZNR8ij178aPXZ-162" style="rounded=0;orthogonalLoop=1;jettySize=auto;html=1;exitX=1;exitY=1;exitDx=0;exitDy=0;endArrow=none;endFill=0;entryX=1.006;entryY=0.114;entryDx=0;entryDy=0;entryPerimeter=0;" parent="1" source="wSlA6vIZNR8ij178aPXZ-90" edge="1" target="wSlA6vIZNR8ij178aPXZ-132">
          <mxGeometry relative="1" as="geometry">
            <mxPoint x="859.36" y="213" as="targetPoint" />
          </mxGeometry>
        </mxCell>
        <mxCell id="wSlA6vIZNR8ij178aPXZ-90" value="S#" style="ellipse;whiteSpace=wrap;html=1;" parent="1" vertex="1">
          <mxGeometry x="716.23" y="123.51999999999998" width="50" height="30" as="geometry" />
        </mxCell>
        <mxCell id="wSlA6vIZNR8ij178aPXZ-143" style="rounded=0;orthogonalLoop=1;jettySize=auto;html=1;entryX=0.5;entryY=0;entryDx=0;entryDy=0;endArrow=none;endFill=0;" parent="1" source="wSlA6vIZNR8ij178aPXZ-91" target="wSlA6vIZNR8ij178aPXZ-129" edge="1">
          <mxGeometry relative="1" as="geometry" />
        </mxCell>
        <mxCell id="wSlA6vIZNR8ij178aPXZ-91" value="id" style="ellipse;whiteSpace=wrap;html=1;" parent="1" vertex="1">
          <mxGeometry x="355" y="-138" width="50" height="32" as="geometry" />
        </mxCell>
        <mxCell id="wSlA6vIZNR8ij178aPXZ-144" style="rounded=0;orthogonalLoop=1;jettySize=auto;html=1;entryX=0.5;entryY=0;entryDx=0;entryDy=0;endArrow=none;endFill=0;" parent="1" source="wSlA6vIZNR8ij178aPXZ-92" target="wSlA6vIZNR8ij178aPXZ-129" edge="1">
          <mxGeometry relative="1" as="geometry" />
        </mxCell>
        <mxCell id="wSlA6vIZNR8ij178aPXZ-92" value="day" style="ellipse;whiteSpace=wrap;html=1;" parent="1" vertex="1">
          <mxGeometry x="435" y="-138" width="50" height="32" as="geometry" />
        </mxCell>
        <mxCell id="wSlA6vIZNR8ij178aPXZ-145" style="rounded=0;orthogonalLoop=1;jettySize=auto;html=1;entryX=0.5;entryY=0;entryDx=0;entryDy=0;endArrow=none;endFill=0;exitX=0.5;exitY=1;exitDx=0;exitDy=0;" parent="1" source="wSlA6vIZNR8ij178aPXZ-93" target="wSlA6vIZNR8ij178aPXZ-129" edge="1">
          <mxGeometry relative="1" as="geometry" />
        </mxCell>
        <mxCell id="wSlA6vIZNR8ij178aPXZ-93" value="start time" style="ellipse;whiteSpace=wrap;html=1;" parent="1" vertex="1">
          <mxGeometry x="515" y="-140" width="50" height="32" as="geometry" />
        </mxCell>
        <mxCell id="wSlA6vIZNR8ij178aPXZ-146" style="rounded=0;orthogonalLoop=1;jettySize=auto;html=1;endArrow=none;endFill=0;exitX=0.247;exitY=0.979;exitDx=0;exitDy=0;exitPerimeter=0;" parent="1" source="wSlA6vIZNR8ij178aPXZ-94" edge="1">
          <mxGeometry relative="1" as="geometry">
            <mxPoint x="485" y="-38" as="targetPoint" />
          </mxGeometry>
        </mxCell>
        <mxCell id="wSlA6vIZNR8ij178aPXZ-94" value="end time" style="ellipse;whiteSpace=wrap;html=1;" parent="1" vertex="1">
          <mxGeometry x="595" y="-138" width="50" height="32" as="geometry" />
        </mxCell>
        <mxCell id="wSlA6vIZNR8ij178aPXZ-97" value="{1, 1}" style="text;html=1;align=center;verticalAlign=middle;resizable=0;points=[];autosize=1;strokeColor=none;fillColor=none;" parent="1" vertex="1">
          <mxGeometry x="-460" y="329.3799999999999" width="50" height="30" as="geometry" />
        </mxCell>
        <mxCell id="wSlA6vIZNR8ij178aPXZ-101" value="{1, 20}" style="text;html=1;align=center;verticalAlign=middle;resizable=0;points=[];autosize=1;strokeColor=none;fillColor=none;" parent="1" vertex="1">
          <mxGeometry x="2.5" y="618.36" width="60" height="30" as="geometry" />
        </mxCell>
        <mxCell id="wSlA6vIZNR8ij178aPXZ-103" value="{1, 1}" style="text;html=1;align=center;verticalAlign=middle;resizable=0;points=[];autosize=1;strokeColor=none;fillColor=none;" parent="1" vertex="1">
          <mxGeometry x="410" y="613.3600000000001" width="50" height="30" as="geometry" />
        </mxCell>
        <mxCell id="mhtMq_iuCtjjIO76mxL3-96" style="edgeStyle=orthogonalEdgeStyle;rounded=0;orthogonalLoop=1;jettySize=auto;html=1;entryX=0;entryY=0.25;entryDx=0;entryDy=0;endArrow=none;endFill=0;" edge="1" parent="1" source="wSlA6vIZNR8ij178aPXZ-104" target="mhtMq_iuCtjjIO76mxL3-43">
          <mxGeometry relative="1" as="geometry">
            <Array as="points">
              <mxPoint x="-387" y="278.86" />
            </Array>
          </mxGeometry>
        </mxCell>
        <mxCell id="wSlA6vIZNR8ij178aPXZ-104" value="ID" style="rhombus;whiteSpace=wrap;html=1;" parent="1" vertex="1">
          <mxGeometry x="-410" y="445.86" width="46.25" height="39.36" as="geometry" />
        </mxCell>
        <mxCell id="wSlA6vIZNR8ij178aPXZ-105" style="edgeStyle=orthogonalEdgeStyle;rounded=0;orthogonalLoop=1;jettySize=auto;html=1;endArrow=none;endFill=0;exitX=0.5;exitY=1;exitDx=0;exitDy=0;entryX=0.093;entryY=-0.005;entryDx=0;entryDy=0;entryPerimeter=0;" parent="1" source="wSlA6vIZNR8ij178aPXZ-104" edge="1" target="wSlA6vIZNR8ij178aPXZ-4">
          <mxGeometry relative="1" as="geometry">
            <mxPoint x="-107" y="625.86" as="targetPoint" />
            <Array as="points">
              <mxPoint x="-387" y="605.86" />
              <mxPoint x="-150" y="605.86" />
            </Array>
          </mxGeometry>
        </mxCell>
        <mxCell id="wSlA6vIZNR8ij178aPXZ-107" value="{1, 30}" style="text;html=1;align=center;verticalAlign=middle;resizable=0;points=[];autosize=1;strokeColor=none;fillColor=none;" parent="1" vertex="1">
          <mxGeometry x="-218.12" y="655.2200000000001" width="60" height="30" as="geometry" />
        </mxCell>
        <mxCell id="wSlA6vIZNR8ij178aPXZ-109" style="rounded=0;orthogonalLoop=1;jettySize=auto;html=1;exitX=0.5;exitY=0;exitDx=0;exitDy=0;endArrow=none;endFill=0;entryX=1;entryY=0.5;entryDx=0;entryDy=0;" parent="1" source="wSlA6vIZNR8ij178aPXZ-57" target="wSlA6vIZNR8ij178aPXZ-131" edge="1">
          <mxGeometry relative="1" as="geometry">
            <mxPoint x="766.87" y="695.8599999999997" as="targetPoint" />
          </mxGeometry>
        </mxCell>
        <mxCell id="wSlA6vIZNR8ij178aPXZ-111" value="{N,M}" style="text;html=1;align=center;verticalAlign=middle;resizable=0;points=[];autosize=1;strokeColor=none;fillColor=none;" parent="1" vertex="1">
          <mxGeometry x="590.63" y="643.36" width="50" height="30" as="geometry" />
        </mxCell>
        <mxCell id="wSlA6vIZNR8ij178aPXZ-113" value="{1, 1}" style="text;html=1;align=center;verticalAlign=middle;resizable=0;points=[];autosize=1;strokeColor=none;fillColor=none;" parent="1" vertex="1">
          <mxGeometry x="513.76" y="123.51999999999998" width="50" height="30" as="geometry" />
        </mxCell>
        <mxCell id="wSlA6vIZNR8ij178aPXZ-114" value="Semester" style="ellipse;whiteSpace=wrap;html=1;" parent="1" vertex="1">
          <mxGeometry x="716.23" y="168.29999999999995" width="57.51" height="30" as="geometry" />
        </mxCell>
        <mxCell id="wSlA6vIZNR8ij178aPXZ-115" value="Year" style="ellipse;whiteSpace=wrap;html=1;" parent="1" vertex="1">
          <mxGeometry x="713.73" y="201.98000000000002" width="57.51" height="30" as="geometry" />
        </mxCell>
        <mxCell id="wSlA6vIZNR8ij178aPXZ-116" value="Textbook" style="ellipse;whiteSpace=wrap;html=1;" parent="1" vertex="1">
          <mxGeometry x="706.23" y="243.21000000000004" width="67.51" height="38" as="geometry" />
        </mxCell>
        <mxCell id="wSlA6vIZNR8ij178aPXZ-123" value="{0, N}" style="text;html=1;align=center;verticalAlign=middle;resizable=0;points=[];autosize=1;strokeColor=none;fillColor=none;" parent="1" vertex="1">
          <mxGeometry x="467.51" y="65.86000000000001" width="50" height="30" as="geometry" />
        </mxCell>
        <mxCell id="wSlA6vIZNR8ij178aPXZ-127" value="{1, 1}" style="text;html=1;align=center;verticalAlign=middle;resizable=0;points=[];autosize=1;strokeColor=none;fillColor=none;" parent="1" vertex="1">
          <mxGeometry x="433.76" y="158.51999999999998" width="50" height="30" as="geometry" />
        </mxCell>
        <mxCell id="wSlA6vIZNR8ij178aPXZ-165" style="rounded=0;orthogonalLoop=1;jettySize=auto;html=1;exitX=1;exitY=0.75;exitDx=0;exitDy=0;entryX=0;entryY=0.5;entryDx=0;entryDy=0;endArrow=none;endFill=0;" parent="1" source="wSlA6vIZNR8ij178aPXZ-132" target="wSlA6vIZNR8ij178aPXZ-133" edge="1">
          <mxGeometry relative="1" as="geometry" />
        </mxCell>
        <mxCell id="mhtMq_iuCtjjIO76mxL3-7" value="{N,M}" style="text;html=1;align=center;verticalAlign=middle;resizable=0;points=[];autosize=1;strokeColor=none;fillColor=none;" vertex="1" parent="1">
          <mxGeometry x="595" y="613.3600000000001" width="50" height="30" as="geometry" />
        </mxCell>
        <mxCell id="mhtMq_iuCtjjIO76mxL3-9" value="" style="endArrow=none;dashed=1;html=1;dashPattern=1 3;strokeWidth=2;rounded=0;entryX=0.931;entryY=0.7;entryDx=0;entryDy=0;entryPerimeter=0;exitX=0.075;exitY=0.731;exitDx=0;exitDy=0;exitPerimeter=0;" edge="1" parent="1" source="wSlA6vIZNR8ij178aPXZ-88" target="wSlA6vIZNR8ij178aPXZ-88">
          <mxGeometry width="50" height="50" relative="1" as="geometry">
            <mxPoint x="272.51" y="759" as="sourcePoint" />
            <mxPoint x="322.51" y="709" as="targetPoint" />
          </mxGeometry>
        </mxCell>
        <mxCell id="mhtMq_iuCtjjIO76mxL3-14" value="{1,40}" style="text;html=1;align=center;verticalAlign=middle;resizable=0;points=[];autosize=1;strokeColor=none;fillColor=none;" vertex="1" parent="1">
          <mxGeometry x="-396.25" y="475.86" width="50" height="30" as="geometry" />
        </mxCell>
        <mxCell id="mhtMq_iuCtjjIO76mxL3-16" value="" style="endArrow=none;dashed=1;html=1;dashPattern=1 3;strokeWidth=2;rounded=0;entryX=0.931;entryY=0.7;entryDx=0;entryDy=0;entryPerimeter=0;exitX=0.075;exitY=0.731;exitDx=0;exitDy=0;exitPerimeter=0;" edge="1" parent="1">
          <mxGeometry width="50" height="50" relative="1" as="geometry">
            <mxPoint x="-14.620000000000005" y="861.8599999999999" as="sourcePoint" />
            <mxPoint x="28.379999999999995" y="860.8599999999999" as="targetPoint" />
          </mxGeometry>
        </mxCell>
        <mxCell id="mhtMq_iuCtjjIO76mxL3-17" value="" style="endArrow=none;dashed=1;html=1;dashPattern=1 3;strokeWidth=2;rounded=0;entryX=0.931;entryY=0.7;entryDx=0;entryDy=0;entryPerimeter=0;exitX=0.075;exitY=0.731;exitDx=0;exitDy=0;exitPerimeter=0;" edge="1" parent="1">
          <mxGeometry width="50" height="50" relative="1" as="geometry">
            <mxPoint x="719.73" y="144.01999999999998" as="sourcePoint" />
            <mxPoint x="762.73" y="143.01999999999998" as="targetPoint" />
          </mxGeometry>
        </mxCell>
        <mxCell id="mhtMq_iuCtjjIO76mxL3-19" value="Person" style="rounded=0;whiteSpace=wrap;html=1;" vertex="1" parent="1">
          <mxGeometry x="-260" y="47.879999999999995" width="100" height="33" as="geometry" />
        </mxCell>
        <mxCell id="mhtMq_iuCtjjIO76mxL3-45" style="rounded=0;orthogonalLoop=1;jettySize=auto;html=1;entryX=0.5;entryY=0;entryDx=0;entryDy=0;endArrow=none;endFill=0;" edge="1" parent="1" source="mhtMq_iuCtjjIO76mxL3-20" target="mhtMq_iuCtjjIO76mxL3-42">
          <mxGeometry relative="1" as="geometry" />
        </mxCell>
        <mxCell id="mhtMq_iuCtjjIO76mxL3-20" value="Employee" style="rounded=0;whiteSpace=wrap;html=1;" vertex="1" parent="1">
          <mxGeometry x="-348.75" y="174.38" width="88.75" height="20" as="geometry" />
        </mxCell>
        <mxCell id="mhtMq_iuCtjjIO76mxL3-21" value="Student" style="rounded=0;whiteSpace=wrap;html=1;" vertex="1" parent="1">
          <mxGeometry x="-131.25" y="174.38" width="78.75" height="20" as="geometry" />
        </mxCell>
        <mxCell id="mhtMq_iuCtjjIO76mxL3-23" style="edgeStyle=orthogonalEdgeStyle;rounded=0;orthogonalLoop=1;jettySize=auto;html=1;entryX=0.5;entryY=1;entryDx=0;entryDy=0;endArrow=none;endFill=0;" edge="1" parent="1" source="mhtMq_iuCtjjIO76mxL3-22" target="mhtMq_iuCtjjIO76mxL3-19">
          <mxGeometry relative="1" as="geometry" />
        </mxCell>
        <mxCell id="mhtMq_iuCtjjIO76mxL3-24" style="rounded=0;orthogonalLoop=1;jettySize=auto;html=1;exitX=0;exitY=0.5;exitDx=0;exitDy=0;entryX=0.5;entryY=0;entryDx=0;entryDy=0;endArrow=none;endFill=0;" edge="1" parent="1" source="mhtMq_iuCtjjIO76mxL3-22" target="mhtMq_iuCtjjIO76mxL3-20">
          <mxGeometry relative="1" as="geometry" />
        </mxCell>
        <mxCell id="mhtMq_iuCtjjIO76mxL3-25" style="rounded=0;orthogonalLoop=1;jettySize=auto;html=1;entryX=0.5;entryY=0;entryDx=0;entryDy=0;endArrow=none;endFill=0;exitX=1;exitY=0.5;exitDx=0;exitDy=0;" edge="1" parent="1" source="mhtMq_iuCtjjIO76mxL3-22" target="mhtMq_iuCtjjIO76mxL3-21">
          <mxGeometry relative="1" as="geometry" />
        </mxCell>
        <mxCell id="mhtMq_iuCtjjIO76mxL3-22" value="O" style="ellipse;whiteSpace=wrap;html=1;aspect=fixed;" vertex="1" parent="1">
          <mxGeometry x="-222.5" y="109.38" width="25" height="25" as="geometry" />
        </mxCell>
        <mxCell id="mhtMq_iuCtjjIO76mxL3-26" value="Name" style="ellipse;whiteSpace=wrap;html=1;" vertex="1" parent="1">
          <mxGeometry x="-125" y="47.879999999999995" width="50" height="30" as="geometry" />
        </mxCell>
        <mxCell id="mhtMq_iuCtjjIO76mxL3-28" style="edgeStyle=orthogonalEdgeStyle;rounded=0;orthogonalLoop=1;jettySize=auto;html=1;entryX=1.002;entryY=0.433;entryDx=0;entryDy=0;entryPerimeter=0;endArrow=none;endFill=0;" edge="1" parent="1" source="mhtMq_iuCtjjIO76mxL3-26" target="mhtMq_iuCtjjIO76mxL3-19">
          <mxGeometry relative="1" as="geometry" />
        </mxCell>
        <mxCell id="mhtMq_iuCtjjIO76mxL3-29" value="Undergrad" style="rounded=0;whiteSpace=wrap;html=1;" vertex="1" parent="1">
          <mxGeometry x="-83.12" y="267.21000000000004" width="78.75" height="20" as="geometry" />
        </mxCell>
        <mxCell id="mhtMq_iuCtjjIO76mxL3-30" value="Graduate" style="rounded=0;whiteSpace=wrap;html=1;" vertex="1" parent="1">
          <mxGeometry x="-171.87" y="267.21000000000004" width="78.75" height="20" as="geometry" />
        </mxCell>
        <mxCell id="mhtMq_iuCtjjIO76mxL3-33" style="edgeStyle=orthogonalEdgeStyle;rounded=0;orthogonalLoop=1;jettySize=auto;html=1;endArrow=none;endFill=0;entryX=0.5;entryY=1;entryDx=0;entryDy=0;" edge="1" parent="1" source="mhtMq_iuCtjjIO76mxL3-31" target="mhtMq_iuCtjjIO76mxL3-21">
          <mxGeometry relative="1" as="geometry">
            <mxPoint x="-82.5" y="204.38" as="targetPoint" />
            <Array as="points" />
          </mxGeometry>
        </mxCell>
        <mxCell id="mhtMq_iuCtjjIO76mxL3-34" style="rounded=0;orthogonalLoop=1;jettySize=auto;html=1;entryX=0.5;entryY=0;entryDx=0;entryDy=0;endArrow=none;endFill=0;exitX=0;exitY=0.5;exitDx=0;exitDy=0;" edge="1" parent="1" source="mhtMq_iuCtjjIO76mxL3-31" target="mhtMq_iuCtjjIO76mxL3-29">
          <mxGeometry relative="1" as="geometry" />
        </mxCell>
        <mxCell id="mhtMq_iuCtjjIO76mxL3-35" style="rounded=0;orthogonalLoop=1;jettySize=auto;html=1;entryX=0.5;entryY=0;entryDx=0;entryDy=0;endArrow=none;endFill=0;exitX=1;exitY=0.5;exitDx=0;exitDy=0;" edge="1" parent="1" source="mhtMq_iuCtjjIO76mxL3-31" target="mhtMq_iuCtjjIO76mxL3-30">
          <mxGeometry relative="1" as="geometry" />
        </mxCell>
        <mxCell id="mhtMq_iuCtjjIO76mxL3-31" value="d" style="ellipse;whiteSpace=wrap;html=1;aspect=fixed;" vertex="1" parent="1">
          <mxGeometry x="-104.38" y="217.84000000000003" width="25" height="25" as="geometry" />
        </mxCell>
        <mxCell id="mhtMq_iuCtjjIO76mxL3-37" style="edgeStyle=orthogonalEdgeStyle;rounded=0;orthogonalLoop=1;jettySize=auto;html=1;endArrow=none;endFill=0;entryX=0.5;entryY=1;entryDx=0;entryDy=0;" edge="1" parent="1" source="mhtMq_iuCtjjIO76mxL3-36" target="mhtMq_iuCtjjIO76mxL3-30">
          <mxGeometry relative="1" as="geometry">
            <mxPoint x="-122.5" y="294.38" as="targetPoint" />
            <Array as="points">
              <mxPoint x="-132.5" y="304.38" />
              <mxPoint x="-132.5" y="304.38" />
            </Array>
          </mxGeometry>
        </mxCell>
        <mxCell id="mhtMq_iuCtjjIO76mxL3-40" style="rounded=0;orthogonalLoop=1;jettySize=auto;html=1;exitX=0;exitY=0.5;exitDx=0;exitDy=0;entryX=0.5;entryY=0;entryDx=0;entryDy=0;endArrow=none;endFill=0;" edge="1" parent="1" source="mhtMq_iuCtjjIO76mxL3-36" target="mhtMq_iuCtjjIO76mxL3-38">
          <mxGeometry relative="1" as="geometry" />
        </mxCell>
        <mxCell id="mhtMq_iuCtjjIO76mxL3-41" style="rounded=0;orthogonalLoop=1;jettySize=auto;html=1;exitX=1;exitY=0.5;exitDx=0;exitDy=0;entryX=0.5;entryY=0;entryDx=0;entryDy=0;endArrow=none;endFill=0;" edge="1" parent="1" source="mhtMq_iuCtjjIO76mxL3-36" target="mhtMq_iuCtjjIO76mxL3-39">
          <mxGeometry relative="1" as="geometry" />
        </mxCell>
        <mxCell id="mhtMq_iuCtjjIO76mxL3-36" value="d" style="ellipse;whiteSpace=wrap;html=1;aspect=fixed;" vertex="1" parent="1">
          <mxGeometry x="-145" y="304.38" width="25" height="25" as="geometry" />
        </mxCell>
        <mxCell id="mhtMq_iuCtjjIO76mxL3-38" value="Masters" style="rounded=0;whiteSpace=wrap;html=1;" vertex="1" parent="1">
          <mxGeometry x="-182.5" y="354.38" width="51.25" height="20" as="geometry" />
        </mxCell>
        <mxCell id="mhtMq_iuCtjjIO76mxL3-39" value="Ph.D" style="rounded=0;whiteSpace=wrap;html=1;" vertex="1" parent="1">
          <mxGeometry x="-126.25" y="354.38" width="43.75" height="20" as="geometry" />
        </mxCell>
        <mxCell id="mhtMq_iuCtjjIO76mxL3-46" style="rounded=0;orthogonalLoop=1;jettySize=auto;html=1;entryX=0.5;entryY=0;entryDx=0;entryDy=0;endArrow=none;endFill=0;" edge="1" parent="1" source="mhtMq_iuCtjjIO76mxL3-42" target="wSlA6vIZNR8ij178aPXZ-8">
          <mxGeometry relative="1" as="geometry" />
        </mxCell>
        <mxCell id="mhtMq_iuCtjjIO76mxL3-47" style="rounded=0;orthogonalLoop=1;jettySize=auto;html=1;entryX=0.5;entryY=0;entryDx=0;entryDy=0;endArrow=none;endFill=0;" edge="1" parent="1" source="mhtMq_iuCtjjIO76mxL3-42" target="mhtMq_iuCtjjIO76mxL3-43">
          <mxGeometry relative="1" as="geometry" />
        </mxCell>
        <mxCell id="mhtMq_iuCtjjIO76mxL3-42" value="d" style="ellipse;whiteSpace=wrap;html=1;aspect=fixed;" vertex="1" parent="1">
          <mxGeometry x="-360" y="223.69000000000005" width="25" height="25" as="geometry" />
        </mxCell>
        <mxCell id="mhtMq_iuCtjjIO76mxL3-51" style="rounded=0;orthogonalLoop=1;jettySize=auto;html=1;entryX=0.5;entryY=0;entryDx=0;entryDy=0;endArrow=none;endFill=0;" edge="1" parent="1" source="mhtMq_iuCtjjIO76mxL3-43" target="mhtMq_iuCtjjIO76mxL3-50">
          <mxGeometry relative="1" as="geometry" />
        </mxCell>
        <mxCell id="mhtMq_iuCtjjIO76mxL3-43" value="Instructor" style="rounded=0;whiteSpace=wrap;html=1;" vertex="1" parent="1">
          <mxGeometry x="-317.5" y="273.69000000000005" width="97.5" height="22.17" as="geometry" />
        </mxCell>
        <mxCell id="mhtMq_iuCtjjIO76mxL3-127" style="edgeStyle=orthogonalEdgeStyle;rounded=0;orthogonalLoop=1;jettySize=auto;html=1;entryX=0.5;entryY=1;entryDx=0;entryDy=0;endArrow=none;endFill=0;" edge="1" parent="1" source="mhtMq_iuCtjjIO76mxL3-48" target="mhtMq_iuCtjjIO76mxL3-126">
          <mxGeometry relative="1" as="geometry">
            <Array as="points">
              <mxPoint x="-332" y="495.86" />
              <mxPoint x="150" y="495.86" />
            </Array>
          </mxGeometry>
        </mxCell>
        <mxCell id="mhtMq_iuCtjjIO76mxL3-48" value="Professor" style="rounded=0;whiteSpace=wrap;html=1;" vertex="1" parent="1">
          <mxGeometry x="-375" y="352.58000000000004" width="85" height="20.64" as="geometry" />
        </mxCell>
        <mxCell id="mhtMq_iuCtjjIO76mxL3-122" style="edgeStyle=orthogonalEdgeStyle;rounded=0;orthogonalLoop=1;jettySize=auto;html=1;entryX=0.5;entryY=1;entryDx=0;entryDy=0;endArrow=none;endFill=0;" edge="1" parent="1" source="mhtMq_iuCtjjIO76mxL3-49" target="wSlA6vIZNR8ij178aPXZ-23">
          <mxGeometry relative="1" as="geometry">
            <Array as="points">
              <mxPoint x="-240" y="475.86" />
              <mxPoint x="88" y="475.86" />
            </Array>
          </mxGeometry>
        </mxCell>
        <mxCell id="mhtMq_iuCtjjIO76mxL3-49" value="Lecturer" style="rounded=0;whiteSpace=wrap;html=1;" vertex="1" parent="1">
          <mxGeometry x="-282.5" y="352.58000000000004" width="85" height="20.64" as="geometry" />
        </mxCell>
        <mxCell id="mhtMq_iuCtjjIO76mxL3-52" style="rounded=0;orthogonalLoop=1;jettySize=auto;html=1;entryX=0.5;entryY=0;entryDx=0;entryDy=0;endArrow=none;endFill=0;" edge="1" parent="1" source="mhtMq_iuCtjjIO76mxL3-50" target="mhtMq_iuCtjjIO76mxL3-48">
          <mxGeometry relative="1" as="geometry" />
        </mxCell>
        <mxCell id="mhtMq_iuCtjjIO76mxL3-53" style="rounded=0;orthogonalLoop=1;jettySize=auto;html=1;entryX=0.5;entryY=0;entryDx=0;entryDy=0;endArrow=none;endFill=0;" edge="1" parent="1" source="mhtMq_iuCtjjIO76mxL3-50" target="mhtMq_iuCtjjIO76mxL3-49">
          <mxGeometry relative="1" as="geometry" />
        </mxCell>
        <mxCell id="mhtMq_iuCtjjIO76mxL3-50" value="d" style="ellipse;whiteSpace=wrap;html=1;aspect=fixed;" vertex="1" parent="1">
          <mxGeometry x="-300" y="317.21000000000004" width="25" height="25" as="geometry" />
        </mxCell>
        <mxCell id="mhtMq_iuCtjjIO76mxL3-57" style="rounded=0;orthogonalLoop=1;jettySize=auto;html=1;entryX=0.5;entryY=1;entryDx=0;entryDy=0;endArrow=none;endFill=0;" edge="1" parent="1" source="mhtMq_iuCtjjIO76mxL3-54" target="wSlA6vIZNR8ij178aPXZ-131">
          <mxGeometry relative="1" as="geometry" />
        </mxCell>
        <mxCell id="mhtMq_iuCtjjIO76mxL3-58" style="rounded=0;orthogonalLoop=1;jettySize=auto;html=1;entryX=0.5;entryY=0;entryDx=0;entryDy=0;endArrow=none;endFill=0;" edge="1" parent="1" source="mhtMq_iuCtjjIO76mxL3-54" target="mhtMq_iuCtjjIO76mxL3-55">
          <mxGeometry relative="1" as="geometry" />
        </mxCell>
        <mxCell id="mhtMq_iuCtjjIO76mxL3-59" style="rounded=0;orthogonalLoop=1;jettySize=auto;html=1;entryX=0.5;entryY=0;entryDx=0;entryDy=0;endArrow=none;endFill=0;" edge="1" parent="1" source="mhtMq_iuCtjjIO76mxL3-54" target="mhtMq_iuCtjjIO76mxL3-56">
          <mxGeometry relative="1" as="geometry" />
        </mxCell>
        <mxCell id="mhtMq_iuCtjjIO76mxL3-54" value="d" style="ellipse;whiteSpace=wrap;html=1;aspect=fixed;" vertex="1" parent="1">
          <mxGeometry x="548.13" y="714" width="25" height="25" as="geometry" />
        </mxCell>
        <mxCell id="mhtMq_iuCtjjIO76mxL3-55" value="Undergraduate" style="rounded=0;whiteSpace=wrap;html=1;" vertex="1" parent="1">
          <mxGeometry x="467.51" y="769" width="93.11" height="25" as="geometry" />
        </mxCell>
        <mxCell id="mhtMq_iuCtjjIO76mxL3-56" value="Graduate" style="rounded=0;whiteSpace=wrap;html=1;" vertex="1" parent="1">
          <mxGeometry x="590.63" y="769" width="79.99" height="25" as="geometry" />
        </mxCell>
        <mxCell id="mhtMq_iuCtjjIO76mxL3-100" style="edgeStyle=orthogonalEdgeStyle;rounded=0;orthogonalLoop=1;jettySize=auto;html=1;entryX=0.5;entryY=1;entryDx=0;entryDy=0;endArrow=none;endFill=0;" edge="1" parent="1" source="mhtMq_iuCtjjIO76mxL3-60" target="mhtMq_iuCtjjIO76mxL3-61">
          <mxGeometry relative="1" as="geometry" />
        </mxCell>
        <mxCell id="mhtMq_iuCtjjIO76mxL3-60" value="" style="rhombus;whiteSpace=wrap;html=1;rotation=0;" vertex="1" parent="1">
          <mxGeometry x="-628.75" y="765.8599999999999" width="77.5" height="75" as="geometry" />
        </mxCell>
        <mxCell id="mhtMq_iuCtjjIO76mxL3-61" value="" style="rounded=0;whiteSpace=wrap;html=1;" vertex="1" parent="1">
          <mxGeometry x="-645" y="655.2200000000001" width="110" height="57.5" as="geometry" />
        </mxCell>
        <mxCell id="mhtMq_iuCtjjIO76mxL3-101" style="edgeStyle=orthogonalEdgeStyle;rounded=0;orthogonalLoop=1;jettySize=auto;html=1;entryX=0.5;entryY=1;entryDx=0;entryDy=0;endArrow=none;endFill=0;" edge="1" parent="1" source="mhtMq_iuCtjjIO76mxL3-64" target="mhtMq_iuCtjjIO76mxL3-60">
          <mxGeometry relative="1" as="geometry">
            <Array as="points">
              <mxPoint x="-590" y="915.8599999999999" />
              <mxPoint x="-590" y="915.8599999999999" />
            </Array>
          </mxGeometry>
        </mxCell>
        <mxCell id="mhtMq_iuCtjjIO76mxL3-64" value="Building" style="rounded=0;whiteSpace=wrap;html=1;" vertex="1" parent="1">
          <mxGeometry x="-646.87" y="935.8599999999999" width="120" height="40" as="geometry" />
        </mxCell>
        <mxCell id="mhtMq_iuCtjjIO76mxL3-68" value="Office" style="rounded=0;whiteSpace=wrap;html=1;" vertex="1" parent="1">
          <mxGeometry x="-635" y="665.2200000000001" width="90" height="37.5" as="geometry" />
        </mxCell>
        <mxCell id="mhtMq_iuCtjjIO76mxL3-69" value="BO" style="rhombus;whiteSpace=wrap;html=1;" vertex="1" parent="1">
          <mxGeometry x="-617.5" y="775.8599999999999" width="56.25" height="55" as="geometry" />
        </mxCell>
        <mxCell id="mhtMq_iuCtjjIO76mxL3-71" style="rounded=0;orthogonalLoop=1;jettySize=auto;html=1;entryX=0.5;entryY=1;entryDx=0;entryDy=0;endArrow=none;endFill=0;" edge="1" parent="1" source="mhtMq_iuCtjjIO76mxL3-72" target="mhtMq_iuCtjjIO76mxL3-64">
          <mxGeometry relative="1" as="geometry" />
        </mxCell>
        <mxCell id="mhtMq_iuCtjjIO76mxL3-72" value="&lt;u&gt;B#&lt;/u&gt;" style="ellipse;whiteSpace=wrap;html=1;" vertex="1" parent="1">
          <mxGeometry x="-681.87" y="1060.86" width="50" height="30" as="geometry" />
        </mxCell>
        <mxCell id="mhtMq_iuCtjjIO76mxL3-73" style="rounded=0;orthogonalLoop=1;jettySize=auto;html=1;entryX=0.5;entryY=1;entryDx=0;entryDy=0;endArrow=none;endFill=0;exitX=0.5;exitY=0;exitDx=0;exitDy=0;" edge="1" parent="1" source="mhtMq_iuCtjjIO76mxL3-74" target="mhtMq_iuCtjjIO76mxL3-64">
          <mxGeometry relative="1" as="geometry" />
        </mxCell>
        <mxCell id="mhtMq_iuCtjjIO76mxL3-74" value="&lt;u&gt;Name&lt;/u&gt;" style="ellipse;whiteSpace=wrap;html=1;" vertex="1" parent="1">
          <mxGeometry x="-548.12" y="1060.86" width="50" height="30" as="geometry" />
        </mxCell>
        <mxCell id="mhtMq_iuCtjjIO76mxL3-78" style="rounded=0;orthogonalLoop=1;jettySize=auto;html=1;endArrow=none;endFill=0;entryX=0;entryY=0.25;entryDx=0;entryDy=0;" edge="1" parent="1" source="mhtMq_iuCtjjIO76mxL3-79" target="mhtMq_iuCtjjIO76mxL3-61">
          <mxGeometry relative="1" as="geometry">
            <mxPoint x="-760" y="653.36" as="targetPoint" />
          </mxGeometry>
        </mxCell>
        <mxCell id="mhtMq_iuCtjjIO76mxL3-79" value="R#" style="ellipse;whiteSpace=wrap;html=1;" vertex="1" parent="1">
          <mxGeometry x="-820" y="633.36" width="40" height="30" as="geometry" />
        </mxCell>
        <mxCell id="mhtMq_iuCtjjIO76mxL3-80" style="rounded=0;orthogonalLoop=1;jettySize=auto;html=1;endArrow=none;endFill=0;entryX=0;entryY=0.5;entryDx=0;entryDy=0;" edge="1" parent="1" source="mhtMq_iuCtjjIO76mxL3-81" target="mhtMq_iuCtjjIO76mxL3-61">
          <mxGeometry relative="1" as="geometry">
            <mxPoint x="-670" y="733.3599999999999" as="targetPoint" />
          </mxGeometry>
        </mxCell>
        <mxCell id="mhtMq_iuCtjjIO76mxL3-81" value="Size" style="ellipse;whiteSpace=wrap;html=1;" vertex="1" parent="1">
          <mxGeometry x="-820" y="690.8599999999999" width="40" height="30" as="geometry" />
        </mxCell>
        <mxCell id="mhtMq_iuCtjjIO76mxL3-85" value="" style="endArrow=none;dashed=1;html=1;dashPattern=1 3;strokeWidth=2;rounded=0;exitX=0.075;exitY=0.731;exitDx=0;exitDy=0;exitPerimeter=0;" edge="1" parent="1">
          <mxGeometry width="50" height="50" relative="1" as="geometry">
            <mxPoint x="-818" y="654.36" as="sourcePoint" />
            <mxPoint x="-785" y="653.36" as="targetPoint" />
          </mxGeometry>
        </mxCell>
        <mxCell id="mhtMq_iuCtjjIO76mxL3-94" style="rounded=0;orthogonalLoop=1;jettySize=auto;html=1;entryX=0;entryY=1;entryDx=0;entryDy=0;endArrow=none;endFill=0;" edge="1" parent="1" source="mhtMq_iuCtjjIO76mxL3-93" target="wSlA6vIZNR8ij178aPXZ-8">
          <mxGeometry relative="1" as="geometry" />
        </mxCell>
        <mxCell id="mhtMq_iuCtjjIO76mxL3-93" value="CO" style="rhombus;whiteSpace=wrap;html=1;" vertex="1" parent="1">
          <mxGeometry x="-626.25" y="400.22" width="50" height="50" as="geometry" />
        </mxCell>
        <mxCell id="mhtMq_iuCtjjIO76mxL3-95" style="edgeStyle=orthogonalEdgeStyle;rounded=0;orthogonalLoop=1;jettySize=auto;html=1;entryX=0.391;entryY=-0.006;entryDx=0;entryDy=0;entryPerimeter=0;endArrow=none;endFill=0;" edge="1" parent="1" source="mhtMq_iuCtjjIO76mxL3-93" target="mhtMq_iuCtjjIO76mxL3-61">
          <mxGeometry relative="1" as="geometry" />
        </mxCell>
        <mxCell id="mhtMq_iuCtjjIO76mxL3-98" style="edgeStyle=orthogonalEdgeStyle;rounded=0;orthogonalLoop=1;jettySize=auto;html=1;entryX=0.75;entryY=0;entryDx=0;entryDy=0;endArrow=none;endFill=0;" edge="1" parent="1" source="mhtMq_iuCtjjIO76mxL3-97" target="mhtMq_iuCtjjIO76mxL3-61">
          <mxGeometry relative="1" as="geometry">
            <Array as="points">
              <mxPoint x="-545" y="654.86" />
            </Array>
          </mxGeometry>
        </mxCell>
        <mxCell id="mhtMq_iuCtjjIO76mxL3-99" style="edgeStyle=orthogonalEdgeStyle;rounded=0;orthogonalLoop=1;jettySize=auto;html=1;entryX=0;entryY=0.75;entryDx=0;entryDy=0;endArrow=none;endFill=0;" edge="1" parent="1" source="mhtMq_iuCtjjIO76mxL3-97" target="mhtMq_iuCtjjIO76mxL3-43">
          <mxGeometry relative="1" as="geometry">
            <Array as="points">
              <mxPoint x="-390" y="427.86" />
              <mxPoint x="-390" y="290.86" />
            </Array>
          </mxGeometry>
        </mxCell>
        <mxCell id="mhtMq_iuCtjjIO76mxL3-97" value="IO" style="rhombus;whiteSpace=wrap;html=1;" vertex="1" parent="1">
          <mxGeometry x="-570" y="403.22" width="50" height="50" as="geometry" />
        </mxCell>
        <mxCell id="mhtMq_iuCtjjIO76mxL3-103" style="edgeStyle=orthogonalEdgeStyle;rounded=0;orthogonalLoop=1;jettySize=auto;html=1;entryX=1;entryY=0.5;entryDx=0;entryDy=0;endArrow=none;endFill=0;" edge="1" parent="1" source="mhtMq_iuCtjjIO76mxL3-102" target="mhtMq_iuCtjjIO76mxL3-61">
          <mxGeometry relative="1" as="geometry" />
        </mxCell>
        <mxCell id="mhtMq_iuCtjjIO76mxL3-104" style="edgeStyle=orthogonalEdgeStyle;rounded=0;orthogonalLoop=1;jettySize=auto;html=1;entryX=0;entryY=0.75;entryDx=0;entryDy=0;endArrow=none;endFill=0;" edge="1" parent="1" source="mhtMq_iuCtjjIO76mxL3-102" target="wSlA6vIZNR8ij178aPXZ-4">
          <mxGeometry relative="1" as="geometry" />
        </mxCell>
        <mxCell id="mhtMq_iuCtjjIO76mxL3-102" value="DO" style="rhombus;whiteSpace=wrap;html=1;" vertex="1" parent="1">
          <mxGeometry x="-375" y="663.36" width="46.25" height="39.36" as="geometry" />
        </mxCell>
        <mxCell id="mhtMq_iuCtjjIO76mxL3-106" style="edgeStyle=orthogonalEdgeStyle;rounded=0;orthogonalLoop=1;jettySize=auto;html=1;entryX=0.996;entryY=0.439;entryDx=0;entryDy=0;entryPerimeter=0;endArrow=none;endFill=0;" edge="1" parent="1" source="mhtMq_iuCtjjIO76mxL3-5" target="wSlA6vIZNR8ij178aPXZ-4">
          <mxGeometry relative="1" as="geometry" />
        </mxCell>
        <mxCell id="mhtMq_iuCtjjIO76mxL3-107" style="edgeStyle=orthogonalEdgeStyle;rounded=0;orthogonalLoop=1;jettySize=auto;html=1;entryX=0.9;entryY=1.106;entryDx=0;entryDy=0;entryPerimeter=0;endArrow=none;endFill=0;" edge="1" parent="1" source="mhtMq_iuCtjjIO76mxL3-5" target="wSlA6vIZNR8ij178aPXZ-103">
          <mxGeometry relative="1" as="geometry" />
        </mxCell>
        <mxCell id="mhtMq_iuCtjjIO76mxL3-111" style="edgeStyle=orthogonalEdgeStyle;rounded=0;orthogonalLoop=1;jettySize=auto;html=1;entryX=0.673;entryY=1.017;entryDx=0;entryDy=0;entryPerimeter=0;endArrow=none;endFill=0;" edge="1" parent="1" target="wSlA6vIZNR8ij178aPXZ-132">
          <mxGeometry relative="1" as="geometry">
            <mxPoint x="529" y="405.86" as="sourcePoint" />
          </mxGeometry>
        </mxCell>
        <mxCell id="mhtMq_iuCtjjIO76mxL3-121" style="edgeStyle=orthogonalEdgeStyle;rounded=0;orthogonalLoop=1;jettySize=auto;html=1;entryX=0;entryY=0.5;entryDx=0;entryDy=0;endArrow=none;endFill=0;" edge="1" parent="1" source="mhtMq_iuCtjjIO76mxL3-113" target="wSlA6vIZNR8ij178aPXZ-132">
          <mxGeometry relative="1" as="geometry" />
        </mxCell>
        <mxCell id="mhtMq_iuCtjjIO76mxL3-113" value="d" style="ellipse;whiteSpace=wrap;html=1;aspect=fixed;" vertex="1" parent="1">
          <mxGeometry x="330" y="206.98000000000002" width="25" height="25" as="geometry" />
        </mxCell>
        <mxCell id="mhtMq_iuCtjjIO76mxL3-119" style="rounded=0;orthogonalLoop=1;jettySize=auto;html=1;entryX=0.5;entryY=0;entryDx=0;entryDy=0;endArrow=none;endFill=0;" edge="1" parent="1" source="mhtMq_iuCtjjIO76mxL3-114" target="mhtMq_iuCtjjIO76mxL3-113">
          <mxGeometry relative="1" as="geometry" />
        </mxCell>
        <mxCell id="mhtMq_iuCtjjIO76mxL3-114" value="Undergrad Sec" style="rounded=0;whiteSpace=wrap;html=1;" vertex="1" parent="1">
          <mxGeometry x="185.64" y="178.51999999999998" width="84.36" height="20" as="geometry" />
        </mxCell>
        <mxCell id="mhtMq_iuCtjjIO76mxL3-120" style="rounded=0;orthogonalLoop=1;jettySize=auto;html=1;entryX=0.5;entryY=1;entryDx=0;entryDy=0;endArrow=none;endFill=0;" edge="1" parent="1" source="mhtMq_iuCtjjIO76mxL3-115" target="mhtMq_iuCtjjIO76mxL3-113">
          <mxGeometry relative="1" as="geometry" />
        </mxCell>
        <mxCell id="mhtMq_iuCtjjIO76mxL3-115" value="Graduate Sec" style="rounded=0;whiteSpace=wrap;html=1;" vertex="1" parent="1">
          <mxGeometry x="190" y="257.20000000000005" width="78.75" height="20" as="geometry" />
        </mxCell>
        <mxCell id="mhtMq_iuCtjjIO76mxL3-124" value="{1, 1}" style="text;html=1;align=center;verticalAlign=middle;resizable=0;points=[];autosize=1;strokeColor=none;fillColor=none;" vertex="1" parent="1">
          <mxGeometry x="75" y="203.86" width="50" height="30" as="geometry" />
        </mxCell>
        <mxCell id="mhtMq_iuCtjjIO76mxL3-125" value="{1,1}" style="text;html=1;align=center;verticalAlign=middle;resizable=0;points=[];autosize=1;strokeColor=none;fillColor=none;" vertex="1" parent="1">
          <mxGeometry x="75" y="283.86" width="50" height="30" as="geometry" />
        </mxCell>
        <mxCell id="mhtMq_iuCtjjIO76mxL3-128" style="edgeStyle=orthogonalEdgeStyle;rounded=0;orthogonalLoop=1;jettySize=auto;html=1;entryX=0;entryY=0;entryDx=0;entryDy=0;endArrow=none;endFill=0;" edge="1" parent="1" source="mhtMq_iuCtjjIO76mxL3-126" target="wSlA6vIZNR8ij178aPXZ-132">
          <mxGeometry relative="1" as="geometry">
            <Array as="points">
              <mxPoint x="150" y="115.86000000000001" />
              <mxPoint x="430" y="115.86000000000001" />
            </Array>
          </mxGeometry>
        </mxCell>
        <mxCell id="mhtMq_iuCtjjIO76mxL3-126" value="PS" style="rhombus;whiteSpace=wrap;html=1;" vertex="1" parent="1">
          <mxGeometry x="125.00999999999999" y="238.69000000000005" width="50" height="50" as="geometry" />
        </mxCell>
        <mxCell id="mhtMq_iuCtjjIO76mxL3-129" value="{1, 1}" style="text;html=1;align=center;verticalAlign=middle;resizable=0;points=[];autosize=1;strokeColor=none;fillColor=none;" vertex="1" parent="1">
          <mxGeometry x="135" y="283.86" width="50" height="30" as="geometry" />
        </mxCell>
        <mxCell id="mhtMq_iuCtjjIO76mxL3-130" value="{1, 1}" style="text;html=1;align=center;verticalAlign=middle;resizable=0;points=[];autosize=1;strokeColor=none;fillColor=none;" vertex="1" parent="1">
          <mxGeometry x="135" y="203.86" width="50" height="30" as="geometry" />
        </mxCell>
        <mxCell id="mhtMq_iuCtjjIO76mxL3-132" style="edgeStyle=orthogonalEdgeStyle;rounded=0;orthogonalLoop=1;jettySize=auto;html=1;entryX=0.75;entryY=1;entryDx=0;entryDy=0;endArrow=none;endFill=0;exitX=0;exitY=0.5;exitDx=0;exitDy=0;" edge="1" parent="1" source="mhtMq_iuCtjjIO76mxL3-131" target="mhtMq_iuCtjjIO76mxL3-48">
          <mxGeometry relative="1" as="geometry">
            <Array as="points">
              <mxPoint x="-311" y="460.86" />
              <mxPoint x="-311" y="409.86" />
            </Array>
          </mxGeometry>
        </mxCell>
        <mxCell id="mhtMq_iuCtjjIO76mxL3-131" value="PP" style="rhombus;whiteSpace=wrap;html=1;" vertex="1" parent="1">
          <mxGeometry x="-310" y="445.86" width="50" height="30" as="geometry" />
        </mxCell>
        <mxCell id="mhtMq_iuCtjjIO76mxL3-134" style="edgeStyle=orthogonalEdgeStyle;rounded=0;orthogonalLoop=1;jettySize=auto;html=1;entryX=0.601;entryY=0.99;entryDx=0;entryDy=0;entryPerimeter=0;endArrow=none;endFill=0;" edge="1" parent="1" source="mhtMq_iuCtjjIO76mxL3-131" target="mhtMq_iuCtjjIO76mxL3-39">
          <mxGeometry relative="1" as="geometry" />
        </mxCell>
        <mxCell id="mhtMq_iuCtjjIO76mxL3-135" value="{1, 1}" style="text;html=1;align=center;verticalAlign=middle;resizable=0;points=[];autosize=1;strokeColor=none;fillColor=none;" vertex="1" parent="1">
          <mxGeometry x="-325" y="423.97" width="50" height="30" as="geometry" />
        </mxCell>
        <mxCell id="mhtMq_iuCtjjIO76mxL3-136" value="{1, 3}" style="text;html=1;align=center;verticalAlign=middle;resizable=0;points=[];autosize=1;strokeColor=none;fillColor=none;" vertex="1" parent="1">
          <mxGeometry x="-275" y="433.86" width="50" height="30" as="geometry" />
        </mxCell>
        <mxCell id="mhtMq_iuCtjjIO76mxL3-137" value="PP" style="rhombus;whiteSpace=wrap;html=1;" vertex="1" parent="1">
          <mxGeometry x="-282.5" y="400.22" width="50" height="30" as="geometry" />
        </mxCell>
        <mxCell id="mhtMq_iuCtjjIO76mxL3-138" style="edgeStyle=orthogonalEdgeStyle;rounded=0;orthogonalLoop=1;jettySize=auto;html=1;entryX=0.843;entryY=1.004;entryDx=0;entryDy=0;entryPerimeter=0;endArrow=none;endFill=0;" edge="1" parent="1" source="mhtMq_iuCtjjIO76mxL3-137" target="mhtMq_iuCtjjIO76mxL3-48">
          <mxGeometry relative="1" as="geometry" />
        </mxCell>
        <mxCell id="mhtMq_iuCtjjIO76mxL3-139" style="edgeStyle=orthogonalEdgeStyle;rounded=0;orthogonalLoop=1;jettySize=auto;html=1;entryX=0.626;entryY=0.975;entryDx=0;entryDy=0;entryPerimeter=0;endArrow=none;endFill=0;" edge="1" parent="1" source="mhtMq_iuCtjjIO76mxL3-137" target="mhtMq_iuCtjjIO76mxL3-38">
          <mxGeometry relative="1" as="geometry" />
        </mxCell>
        <mxCell id="mhtMq_iuCtjjIO76mxL3-140" value="{1, 1}" style="text;html=1;align=center;verticalAlign=middle;resizable=0;points=[];autosize=1;strokeColor=none;fillColor=none;" vertex="1" parent="1">
          <mxGeometry x="-310" y="383.97" width="50" height="30" as="geometry" />
        </mxCell>
        <mxCell id="mhtMq_iuCtjjIO76mxL3-141" value="{1, 6}" style="text;html=1;align=center;verticalAlign=middle;resizable=0;points=[];autosize=1;strokeColor=none;fillColor=none;" vertex="1" parent="1">
          <mxGeometry x="-245" y="393.86" width="50" height="30" as="geometry" />
        </mxCell>
        <mxCell id="mhtMq_iuCtjjIO76mxL3-143" value="{1,1}" style="text;html=1;align=center;verticalAlign=middle;resizable=0;points=[];autosize=1;strokeColor=none;fillColor=none;" vertex="1" parent="1">
          <mxGeometry x="-605" y="733.8599999999999" width="50" height="30" as="geometry" />
        </mxCell>
        <mxCell id="mhtMq_iuCtjjIO76mxL3-144" value="{0,N}" style="text;html=1;align=center;verticalAlign=middle;resizable=0;points=[];autosize=1;strokeColor=none;fillColor=none;" vertex="1" parent="1">
          <mxGeometry x="-605" y="843.8599999999999" width="50" height="30" as="geometry" />
        </mxCell>
        <mxCell id="mhtMq_iuCtjjIO76mxL3-145" value="{0,N}" style="text;html=1;align=center;verticalAlign=middle;resizable=0;points=[];autosize=1;strokeColor=none;fillColor=none;" vertex="1" parent="1">
          <mxGeometry x="-265" y="913.8599999999999" width="50" height="30" as="geometry" />
        </mxCell>
        <mxCell id="mhtMq_iuCtjjIO76mxL3-146" value="{1,1}" style="text;html=1;align=center;verticalAlign=middle;resizable=0;points=[];autosize=1;strokeColor=none;fillColor=none;" vertex="1" parent="1">
          <mxGeometry x="-165" y="913.8599999999999" width="50" height="30" as="geometry" />
        </mxCell>
        <mxCell id="mhtMq_iuCtjjIO76mxL3-147" value="{0,1}" style="text;html=1;align=center;verticalAlign=middle;resizable=0;points=[];autosize=1;strokeColor=none;fillColor=none;" vertex="1" parent="1">
          <mxGeometry x="-645" y="443.86" width="50" height="30" as="geometry" />
        </mxCell>
        <mxCell id="mhtMq_iuCtjjIO76mxL3-148" value="{1,1}" style="text;html=1;align=center;verticalAlign=middle;resizable=0;points=[];autosize=1;strokeColor=none;fillColor=none;" vertex="1" parent="1">
          <mxGeometry x="-615" y="363.86" width="50" height="30" as="geometry" />
        </mxCell>
        <mxCell id="mhtMq_iuCtjjIO76mxL3-149" value="{1,1}" style="text;html=1;align=center;verticalAlign=middle;resizable=0;points=[];autosize=1;strokeColor=none;fillColor=none;" vertex="1" parent="1">
          <mxGeometry x="-535" y="403.86" width="50" height="30" as="geometry" />
        </mxCell>
        <mxCell id="mhtMq_iuCtjjIO76mxL3-150" value="{0,4}" style="text;html=1;align=center;verticalAlign=middle;resizable=0;points=[];autosize=1;strokeColor=none;fillColor=none;" vertex="1" parent="1">
          <mxGeometry x="-553.75" y="453.97" width="50" height="30" as="geometry" />
        </mxCell>
        <mxCell id="mhtMq_iuCtjjIO76mxL3-151" value="{1,1}" style="text;html=1;align=center;verticalAlign=middle;resizable=0;points=[];autosize=1;strokeColor=none;fillColor=none;" vertex="1" parent="1">
          <mxGeometry x="-465" y="393.86" width="50" height="30" as="geometry" />
        </mxCell>
        <mxCell id="mhtMq_iuCtjjIO76mxL3-152" value="{1,1}" style="text;html=1;align=center;verticalAlign=middle;resizable=0;points=[];autosize=1;strokeColor=none;fillColor=none;" vertex="1" parent="1">
          <mxGeometry x="-395" y="413.86" width="50" height="30" as="geometry" />
        </mxCell>
        <mxCell id="mhtMq_iuCtjjIO76mxL3-153" value="{1,1}" style="text;html=1;align=center;verticalAlign=middle;resizable=0;points=[];autosize=1;strokeColor=none;fillColor=none;" vertex="1" parent="1">
          <mxGeometry x="515" y="383.86" width="50" height="30" as="geometry" />
        </mxCell>
        <mxCell id="mhtMq_iuCtjjIO76mxL3-154" value="{0,N}" style="text;html=1;align=center;verticalAlign=middle;resizable=0;points=[];autosize=1;strokeColor=none;fillColor=none;" vertex="1" parent="1">
          <mxGeometry x="515" y="473.86" width="50" height="30" as="geometry" />
        </mxCell>
      </root>
    </mxGraphModel>
  </diagram>
</mxfile>
